<svg width="50" height="53" viewBox="0 0 50 53" fill="none" xmlns="http://www.w3.org/2000/svg">
<g clip-path="url(#clip0_515_291)">
<mask id="mask0_515_291" style="mask-type:luminance" maskUnits="userSpaceOnUse" x="0" y="0" width="50" height="53">
<path d="M50 0H0V52.1584H50V0Z" fill="white"/>
</mask>
<g mask="url(#mask0_515_291)">
<path d="M18.75 23.9059C18.75 25.6351 19.4085 27.2934 20.5806 28.5161C21.7527 29.7388 23.3424 30.4257 25 30.4257C26.6576 30.4257 28.2473 29.7388 29.4194 28.5161C30.5915 27.2934 31.25 25.6351 31.25 23.9059C31.25 22.1768 30.5915 20.5184 29.4194 19.2957C28.2473 18.073 26.6576 17.3861 25 17.3861C23.3424 17.3861 21.7527 18.073 20.5806 19.2957C19.4085 20.5184 18.75 22.1768 18.75 23.9059Z" stroke="#ffffff" stroke-width="1.5" stroke-linecap="round" stroke-linejoin="round"/>
<path d="M36.7851 36.2001L27.9455 45.4213C27.1642 46.2355 26.1051 46.6928 25.0007 46.6928C23.8964 46.6928 22.8372 46.2355 22.0559 45.4213L13.2143 36.2001C10.8835 33.7686 9.29622 30.6707 8.6532 27.2981C8.01018 23.9255 8.34029 20.4298 9.60177 17.2529C10.8633 14.076 12.9995 11.3608 15.7403 9.45042C18.4811 7.54004 21.7034 6.52039 24.9997 6.52039C28.296 6.52039 31.5183 7.54004 34.2591 9.45042C36.9999 11.3608 39.1361 14.076 40.3976 17.2529C41.6591 20.4298 41.9892 23.9255 41.3462 27.2981C40.7031 30.6707 39.1159 33.7686 36.7851 36.2001Z" stroke="#ffffff" stroke-width="1.5" stroke-linecap="round" stroke-linejoin="round"/>
</g>
</g>
<defs>
<clipPath id="clip0_515_291">
<rect width="50" height="52.1584" fill="white"/>
</clipPath>
</defs>
</svg>
