<svg width="26" height="26" viewBox="0 0 26 26" fill="none" xmlns="http://www.w3.org/2000/svg">
<path d="M9.75 22.75H16.25M13 3.25C9.41015 3.25 6.5 6.16015 6.5 9.75C6.5 11.0657 6.89091 12.2901 7.56293 13.3134C8.59633 14.887 9.11257 15.6733 9.17965 15.7908C9.77631 16.8361 9.66645 16.4674 9.74154 17.6687C9.74998 17.8037 9.75 18.0081 9.75 18.4167C9.75 19.015 10.235 19.5 10.8333 19.5L15.1667 19.5C15.765 19.5 16.25 19.015 16.25 18.4167C16.25 18.0081 16.25 17.8037 16.2584 17.6687C16.3335 16.4674 16.223 16.8361 16.8197 15.7908C16.8868 15.6733 17.4039 14.887 18.4373 13.3134C19.1093 12.2901 19.5002 11.0657 19.5002 9.75C19.5002 6.16015 16.5898 3.25 13 3.25Z" stroke="white" stroke-width="2" stroke-linecap="round" stroke-linejoin="round"/>
</svg>
