<svg width="26" height="26" viewBox="0 0 26 26" fill="none" xmlns="http://www.w3.org/2000/svg">
<path d="M13 0C20.1797 0 26 5.8203 26 13C26 20.1797 20.1797 26 13 26C5.8203 26 0 20.1797 0 13C0 5.8203 5.8203 0 13 0ZM13 2C6.92487 2 2 6.92487 2 13C2 19.0751 6.92487 24 13 24C19.0751 24 24 19.0751 24 13C24 6.92487 19.0751 2 13 2ZM15.707 9.69238C16.0975 9.30227 16.7306 9.30233 17.1211 9.69238C17.5116 10.0829 17.5115 10.7169 17.1211 11.1074L12.2324 15.9961L12.1562 16.0654C11.8152 16.3433 11.3332 16.3625 10.9727 16.123C10.6453 16.2019 10.2858 16.1139 10.0303 15.8584L8.29297 14.1211L8.22363 14.0449C7.90376 13.6522 7.92709 13.073 8.29297 12.707C8.65893 12.3412 9.23815 12.3178 9.63086 12.6377L9.70703 12.707L11.1992 14.2002L15.707 9.69238Z" fill="black"/>
</svg>
