<svg width="26" height="26" viewBox="0 0 26 26" fill="none" xmlns="http://www.w3.org/2000/svg">
<path d="M19.5 13V18.4167C19.5 20.2116 16.5899 21.6667 13 21.6667C9.41015 21.6667 6.5 20.2116 6.5 18.4167V13M19.5 13V7.58337M19.5 13C19.5 14.795 16.5899 16.25 13 16.25C9.41015 16.25 6.5 14.795 6.5 13M19.5 7.58337C19.5 5.78845 16.5899 4.33337 13 4.33337C9.41015 4.33337 6.5 5.78845 6.5 7.58337M19.5 7.58337C19.5 9.3783 16.5899 10.8334 13 10.8334C9.41015 10.8334 6.5 9.3783 6.5 7.58337M6.5 13V7.58337" stroke="white" stroke-width="2" stroke-linecap="round" stroke-linejoin="round"/>
</svg>
