<svg width="56" height="56" viewBox="0 0 56 56" fill="none" xmlns="http://www.w3.org/2000/svg">
<mask id="mask0_596_574" style="mask-type:luminance" maskUnits="userSpaceOnUse" x="0" y="0" width="56" height="56">
<path d="M0.549072 0.712769H55.6288V55.713H0.549072V0.712769Z" fill="white"/>
</mask>
<g mask="url(#mask0_596_574)">
<mask id="mask1_596_574" style="mask-type:luminance" maskUnits="userSpaceOnUse" x="0" y="0" width="56" height="56">
<path d="M14.6432 35.186L16.9099 32.9225C18.1741 31.6602 20.2244 31.6602 21.4885 32.9225L25.4713 36.9005C26.7355 38.1628 26.7355 40.2093 25.4713 41.4716C24.2072 42.7339 24.2072 44.7812 25.4713 46.0435L25.7863 46.3572C27.0496 47.6195 29.0999 47.6195 30.364 46.3572L30.679 46.0435C31.9423 44.7812 31.9423 42.7339 30.679 41.4716L30.613 41.4065C29.3489 40.1442 29.3489 38.0969 30.613 36.8346L34.5315 32.9225C35.7957 31.6602 37.846 31.6602 39.1101 32.9225L41.3768 35.186C42.6409 36.4483 42.6409 38.4957 41.3768 39.7579L30.2997 50.8191C29.0356 52.0814 26.9861 52.0814 25.722 50.8191L14.6432 39.7563C13.3791 38.494 13.3791 36.4466 14.6432 35.1843M12.1359 23.5842L15.0125 26.4559C16.2766 27.7182 16.2766 29.7656 15.0125 31.0279L12.7458 33.2896C11.4817 34.5519 9.43134 34.5519 8.16723 33.2896L5.2931 30.4188C4.02898 29.1565 4.02898 27.11 5.2931 25.8477L7.55898 23.5842C8.8231 22.322 10.8734 22.322 12.1375 23.5842M25.722 33.3589L23.3876 31.0279C22.1235 29.7656 22.1235 27.7182 23.3876 26.4559L25.722 24.1257C26.9861 22.8634 29.0356 22.8634 30.2997 24.1257L32.6324 26.4559C33.8966 27.7182 33.8966 29.7656 32.6324 31.0279L30.298 33.3589C29.0348 34.6212 26.9844 34.6212 25.7203 33.3589M41.9834 21.6887L39.1068 24.5612C37.8426 25.8235 35.7923 25.8235 34.529 24.5612L30.5871 20.625C29.323 19.3635 29.323 17.3162 30.5871 16.0539L30.6757 15.9654C31.9398 14.7031 31.9398 12.6558 30.6757 11.3943L30.3607 11.0798C29.0966 9.8175 27.0471 9.8175 25.783 11.0798L25.468 11.3943C24.2039 12.6558 24.2039 14.7031 25.468 15.9654L25.4906 15.988C26.7547 17.2503 26.7547 19.2976 25.4906 20.5599L21.4852 24.5595C20.221 25.8218 18.1707 25.8218 16.9066 24.5595L14.0341 21.6887C12.77 20.4264 12.77 18.3799 14.0341 17.1176L25.7203 5.44744C26.9844 4.18599 29.0348 4.18599 30.298 5.44744L41.9851 17.1176C43.2492 18.3799 43.2492 20.4264 41.9851 21.6887M50.7261 30.4171L47.8495 33.2896C46.5854 34.5519 44.535 34.5519 43.2717 33.2896L41.0059 31.0279C39.7426 29.7656 39.7426 27.7182 41.0059 26.4559L43.8825 23.5842C45.1466 22.322 47.1969 22.322 48.4611 23.5842L50.7278 25.8477C51.9919 27.11 51.9919 29.1565 50.7278 30.4188M25.7203 1.65973L1.4974 25.8477C0.233287 27.11 0.233287 29.1565 1.4974 30.4188L25.7203 54.6068C26.9844 55.8691 29.0348 55.8691 30.298 54.6068L54.521 30.4188C55.7851 29.1565 55.7851 27.11 54.521 25.8477L30.298 1.65973C29.0348 0.39744 26.9844 0.39744 25.7203 1.65973Z" fill="white"/>
</mask>
<g mask="url(#mask1_596_574)">
<path d="M0.549072 0.712769H55.4692V55.5537H0.549072V0.712769Z" fill="#32D875"/>
</g>
</g>
</svg>
