<svg width="36" height="36" viewBox="0 0 36 36" fill="none" xmlns="http://www.w3.org/2000/svg">
<path d="M6 15L15.1615 21.9183L15.1645 21.9208C16.1818 22.6668 16.6907 23.04 17.2481 23.1842C17.7408 23.3117 18.2588 23.3117 18.7515 23.1842C19.3094 23.0399 19.8198 22.6656 20.8389 21.9183L30 15M29.7003 13.5592L21.3018 6.83485C20.259 5.99993 19.7371 5.58261 19.1572 5.41689C18.6456 5.27066 18.1038 5.26292 17.5883 5.39491C17.004 5.54451 16.4713 5.9471 15.4058 6.75282L6.4043 13.5595C5.7057 14.0878 5.35685 14.3521 5.10498 14.6859C4.8819 14.9816 4.71566 15.316 4.61437 15.6723C4.5 16.0745 4.5 16.5125 4.5 17.3883V26.7001C4.5 28.3803 4.5 29.2208 4.82698 29.8625C5.1146 30.427 5.57321 30.8856 6.1377 31.1732C6.7788 31.4999 7.61849 31.4999 9.29537 31.4999H26.7046C28.3815 31.4999 29.22 31.4999 29.8611 31.1732C30.4256 30.8856 30.8857 30.4267 31.1733 29.8622C31.5 29.2211 31.5 28.3821 31.5 26.7053V17.2897C31.5 16.454 31.5 16.0335 31.3931 15.6452C31.2977 15.2988 31.1393 14.9724 30.9286 14.6815C30.6907 14.3531 30.3613 14.0884 29.7003 13.5592Z" stroke="white" stroke-width="2" stroke-linecap="round" stroke-linejoin="round"/>
</svg>
