<svg width="50" height="50" viewBox="0 0 50 50" fill="none" xmlns="http://www.w3.org/2000/svg">
<g clip-path="url(#clip0_515_266)">
<mask id="mask0_515_266" style="mask-type:luminance" maskUnits="userSpaceOnUse" x="0" y="0" width="50" height="50">
<path d="M50 0H0V50H50V0Z" fill="white"/>
</mask>
<g mask="url(#mask0_515_266)">
<path d="M10.4167 8.33325H18.75L22.9167 18.7499L17.7083 21.8749C19.9395 26.3989 23.601 30.0604 28.125 32.2915L31.25 27.0832L41.6667 31.2499V39.5832C41.6667 40.6883 41.2277 41.7481 40.4463 42.5295C39.6649 43.3109 38.6051 43.7499 37.5 43.7499C29.3735 43.256 21.7087 39.8051 15.9517 34.0482C10.1948 28.2912 6.74385 20.6264 6.25 12.4999C6.25 11.3948 6.68899 10.335 7.47039 9.55364C8.25179 8.77224 9.3116 8.33325 10.4167 8.33325Z" stroke="#ffffff" stroke-width="1.5" stroke-linecap="round" stroke-linejoin="round"/>
<path d="M31.25 14.5833C32.3551 14.5833 33.4149 15.0223 34.1963 15.8037C34.9777 16.5851 35.4167 17.6449 35.4167 18.75" stroke="#ffffff" stroke-width="1.5" stroke-linecap="round" stroke-linejoin="round"/>
<path d="M31.25 6.25C34.5652 6.25 37.7446 7.56696 40.0888 9.91117C42.433 12.2554 43.75 15.4348 43.75 18.75" stroke="#ffffff" stroke-width="1.5" stroke-linecap="round" stroke-linejoin="round"/>
</g>
</g>
<defs>
<clipPath id="clip0_515_266">
<rect width="50" height="50" fill="white"/>
</clipPath>
</defs>
</svg>
