<svg width="26" height="26" viewBox="0 0 26 26" fill="none" xmlns="http://www.w3.org/2000/svg">
<path d="M7.04159 20.5833H18.9583C19.4616 20.5833 19.7133 20.5831 19.9226 20.5415C20.7821 20.3705 21.4538 19.6988 21.6248 18.8393C21.6664 18.63 21.6664 18.3783 21.6664 17.875C21.6664 17.3716 21.6664 17.1199 21.6248 16.9106C21.4538 16.0511 20.7821 15.3792 19.9226 15.2083C19.7133 15.1666 19.4616 15.1666 18.9583 15.1666H7.04159C6.53821 15.1666 6.28657 15.1666 6.07727 15.2083C5.21777 15.3792 4.54585 16.0511 4.37488 16.9106C4.33325 17.1199 4.33325 17.3716 4.33325 17.875C4.33325 18.3784 4.33325 18.63 4.37488 18.8393C4.54585 19.6988 5.21777 20.3705 6.07727 20.5415C6.28657 20.5831 6.53821 20.5833 7.04159 20.5833Z" stroke="white" stroke-width="2" stroke-linecap="round" stroke-linejoin="round"/>
<path d="M7.04159 10.8333H18.9583C19.4616 10.8333 19.7133 10.8331 19.9226 10.7915C20.7821 10.6205 21.4538 9.94882 21.6248 9.08932C21.6664 8.88002 21.6664 8.62833 21.6664 8.12496C21.6664 7.62159 21.6664 7.36994 21.6248 7.16064C21.4538 6.30115 20.7821 5.62922 19.9226 5.45826C19.7133 5.41663 19.4616 5.41663 18.9583 5.41663H7.04159C6.53821 5.41663 6.28657 5.41663 6.07727 5.45826C5.21777 5.62922 4.54585 6.30115 4.37488 7.16064C4.33325 7.36994 4.33325 7.62163 4.33325 8.12501C4.33325 8.62838 4.33325 8.87998 4.37488 9.08927C4.54585 9.94877 5.21777 10.6205 6.07727 10.7915C6.28657 10.8331 6.53821 10.8333 7.04159 10.8333Z" stroke="white" stroke-width="2" stroke-linecap="round" stroke-linejoin="round"/>
</svg>
