<svg width="20" height="21" viewBox="0 0 20 21" fill="none" xmlns="http://www.w3.org/2000/svg">
<path d="M2.84364 11.0563L16.5936 17.9313C16.7014 17.9852 16.8225 18.0068 16.9422 17.9935C17.062 17.9802 17.1753 17.9325 17.2686 17.8563C17.3577 17.7816 17.4243 17.6836 17.4607 17.5732C17.4971 17.4627 17.502 17.3444 17.4749 17.2313L15.6249 10.5001L17.4999 3.78756C17.5254 3.69315 17.5283 3.59407 17.5086 3.49831C17.4888 3.40254 17.4468 3.31274 17.386 3.23615C17.3252 3.15955 17.2473 3.09829 17.1586 3.05728C17.0698 3.01628 16.9726 2.99668 16.8749 3.00006C16.7771 3.00064 16.6807 3.02419 16.5936 3.06881L2.84364 9.94381C2.74126 9.99626 2.65535 10.0759 2.59535 10.1741C2.53536 10.2722 2.50361 10.385 2.50361 10.5001C2.50361 10.6151 2.53536 10.7279 2.59535 10.826C2.65535 10.9242 2.74126 11.0039 2.84364 11.0563V11.0563ZM15.9061 4.80631L14.5249 9.87506H8.74989V11.1251H14.5249L15.9061 16.1938L4.52489 10.5001L15.9061 4.80631Z" fill="white" stroke="white" stroke-width="0.5"/>
</svg>
