<svg width="26" height="26" viewBox="0 0 26 26" fill="none" xmlns="http://www.w3.org/2000/svg">
<path d="M14.0028 22.3507C16.2845 21.3179 21.6666 18.1277 21.6666 11.0121V6.71332C21.6666 5.50224 21.6666 4.8958 21.4307 4.43278C21.2229 4.0251 20.8906 3.69388 20.4829 3.48615C20.0195 3.25 19.4136 3.25 18.2001 3.25H7.80013C6.58668 3.25 5.97951 3.25 5.51603 3.48615C5.10835 3.69388 4.77713 4.0251 4.5694 4.43278C4.33325 4.89626 4.33325 5.50343 4.33325 6.71688V11.0121C4.33325 18.1277 9.71503 21.3179 11.9967 22.3507C12.2386 22.4602 12.3601 22.5148 12.6339 22.5618C12.8066 22.5915 13.1943 22.5915 13.367 22.5618C13.6399 22.515 13.7601 22.4605 14.0004 22.3518L14.0028 22.3507Z" stroke="white" stroke-width="2" stroke-linecap="round" stroke-linejoin="round"/>
</svg>
