<svg width="36" height="36" viewBox="0 0 36 36" fill="none" xmlns="http://www.w3.org/2000/svg">
<path d="M5.3802 20.6682C8.04935 23.3218 12.7043 26.9999 18.0003 26.9999C23.2963 26.9999 27.9503 23.3218 30.6195 20.6682C31.3234 19.9684 31.6766 19.6173 31.9007 18.9302C32.0606 18.4399 32.0607 17.5601 31.9007 17.0699C31.6766 16.3827 31.3235 16.0316 30.6195 15.3317C27.9503 12.6781 23.2963 9 18.0003 9C12.7043 9 8.04935 12.6781 5.3802 15.3317C4.67571 16.032 4.32343 16.3825 4.09919 17.0699C3.93927 17.5601 3.93927 18.4399 4.09919 18.9302C4.32343 19.6176 4.6757 19.9678 5.3802 20.6682Z" stroke="white" stroke-width="2" stroke-linecap="round" stroke-linejoin="round"/>
<path d="M15 18C15 19.6569 16.3431 21 18 21C19.6569 21 21 19.6569 21 18C21 16.3431 19.6569 15 18 15C16.3431 15 15 16.3431 15 18Z" stroke="white" stroke-width="2" stroke-linecap="round" stroke-linejoin="round"/>
</svg>
