<svg width="20" height="20" viewBox="0 0 20 20" fill="none" xmlns="http://www.w3.org/2000/svg">
<path d="M18.5652 14.6204C18.4994 14.594 18.4402 14.5741 18.3875 14.5477C16.9069 13.7273 15.9067 12.6953 15.3276 11.3986C14.992 10.6444 15.1104 10.2078 15.7487 9.88364C16.1172 9.69841 16.4923 9.4404 16.9201 9.08315C17.1241 8.91114 17.5518 8.56052 17.2754 8.03788C16.9924 7.51524 16.5055 7.58802 16.1633 7.68725C15.8804 7.77325 15.604 7.86587 15.3539 7.97834C15.1565 8.06434 15.0249 8.08419 14.9591 8.03788C14.8933 7.99157 14.867 7.85926 14.8801 7.64756C14.9196 7.03892 14.913 6.43028 14.8999 5.75548C14.867 3.62525 13.768 2.01103 11.8926 1.32962C9.85262 0.588666 7.54944 1.12453 6.16096 2.65936C5.12124 3.81048 5.02252 5.16007 5.06859 6.44351C5.06859 6.6089 5.08834 6.78752 5.10808 6.96615C5.14756 7.33662 5.18704 7.72033 5.03569 7.92541C4.85143 8.16358 4.62112 8.06434 4.26577 7.8791C4.09468 7.7931 3.92359 7.70048 3.74592 7.67402C3.35109 7.60786 2.94967 7.5814 2.69961 8.01803C2.42323 8.50097 2.75226 8.8516 3.02206 9.06992C3.29844 9.29485 3.60115 9.49332 3.89727 9.68517C3.9894 9.74472 4.08809 9.81087 4.18022 9.87041C4.95672 10.3864 5.00938 10.5783 4.62113 11.4383C4.14075 12.5101 3.35108 13.3966 2.14027 14.2235C2.02182 14.3029 1.85731 14.369 1.69938 14.4286C1.34403 14.5675 0.936039 14.7329 1.00842 15.1232C1.09397 15.5731 1.63357 15.712 2.10736 15.8311C2.21923 15.8576 2.33111 15.884 2.42982 15.9171C2.48904 15.937 2.55485 15.9502 2.61408 15.97C2.96942 16.0627 3.3116 16.1487 3.35109 16.5787C3.41689 17.2469 3.89726 17.3196 4.31183 17.2998C5.39761 17.2601 6.45708 17.5776 7.64157 18.2987C8.41149 18.7685 9.20115 19 9.98423 19C10.7212 19 11.4517 18.7949 12.1558 18.3847C13.1363 17.8158 14.3339 17.2336 15.7751 17.2932C16.2686 17.313 16.5516 17.0947 16.5845 16.6779C16.6174 16.2413 16.8938 16.1156 17.2886 15.9899C17.3939 15.9568 17.4991 15.9237 17.6044 15.8906C17.8413 15.8179 18.0914 15.7451 18.3217 15.6393C18.3678 15.6194 18.4204 15.5996 18.4797 15.5797C18.7034 15.5003 18.9864 15.4011 18.9995 15.0769C19.0127 14.7792 18.756 14.6866 18.5652 14.6204Z" stroke="black" stroke-width="2"/>
</svg>
