<svg width="26" height="26" viewBox="0 0 26 26" fill="none" xmlns="http://www.w3.org/2000/svg">
<path d="M18.4167 21.6666C18.4167 19.8717 15.9915 18.4166 13 18.4166C10.0085 18.4166 7.58333 19.8717 7.58333 21.6666M22.75 18.417C22.75 17.0843 21.4131 15.939 19.5 15.4375M3.25 18.417C3.25 17.0843 4.58694 15.939 6.5 15.4375M19.5 11.0891C20.1649 10.494 20.5833 9.62917 20.5833 8.66663C20.5833 6.8717 19.1283 5.41663 17.3333 5.41663C16.5009 5.41663 15.7417 5.72955 15.1667 6.24418M6.5 11.0891C5.8351 10.494 5.41667 9.62917 5.41667 8.66663C5.41667 6.8717 6.87174 5.41663 8.66667 5.41663C9.49905 5.41663 10.2583 5.72955 10.8333 6.24418M13 15.1666C11.2051 15.1666 9.75 13.7116 9.75 11.9166C9.75 10.1217 11.2051 8.66663 13 8.66663C14.7949 8.66663 16.25 10.1217 16.25 11.9166C16.25 13.7116 14.7949 15.1666 13 15.1666Z" stroke="white" stroke-width="2" stroke-linecap="round" stroke-linejoin="round"/>
</svg>
