<svg width="24" height="24" viewBox="0 0 24 24" fill="none" xmlns="http://www.w3.org/2000/svg">
<g opacity="0.8" clip-path="url(#clip0_608_406)">
<path fill-rule="evenodd" clip-rule="evenodd" d="M17.1992 5.93042C15.7169 4.66602 13.824 3.98608 11.8759 4.01818C9.92775 4.05028 8.05831 4.79222 6.61838 6.10477C5.17845 7.41732 4.26701 9.21025 4.05512 11.1471C3.84323 13.0839 4.34545 15.0315 5.46753 16.6243C5.66838 16.9094 5.70618 17.2786 5.56727 17.5985L4.6597 19.6887L7.87456 19.1157C8.08359 19.0785 8.29906 19.1087 8.48975 19.2021C10.2396 20.0589 12.2421 20.2476 14.1212 19.7329C16.0004 19.2181 17.6271 18.0353 18.6961 16.4063C19.7651 14.7774 20.2028 12.8143 19.9272 10.8855C19.6517 8.95674 18.6816 7.19481 17.1992 5.93042ZM2.8836 21.9937C2.98656 22.0058 3.08953 22.0015 3.18904 21.9823L7.91307 21.1404C10.0268 22.0891 12.4083 22.2757 14.6496 21.6618C16.9985 21.0184 19.0319 19.5398 20.3682 17.5036C21.7044 15.4675 22.2516 13.0136 21.9071 10.6026C21.5626 8.19165 20.3501 5.98925 18.4971 4.40875C16.6441 2.82826 14.2781 1.97832 11.8429 2.01845C9.40777 2.05858 7.07097 2.98601 5.27106 4.62669C3.47114 6.26738 2.33185 8.50853 2.06699 10.9296C1.8229 13.1606 2.33688 15.4031 3.51671 17.2995L2.08825 20.5893C2.04651 20.6816 2.01857 20.7808 2.00654 20.8838C1.99201 21.0074 2.00106 21.1311 2.03134 21.2488C2.06689 21.3879 2.13067 21.5135 2.21533 21.6204C2.37822 21.8261 2.6184 21.9627 2.8836 21.9937Z" fill="black"/>
<path fill-rule="evenodd" clip-rule="evenodd" d="M8.43934 7.93934C8.72065 7.65803 9.10218 7.5 9.5 7.5C9.89782 7.5 10.2794 7.65803 10.5607 7.93934C10.842 8.22065 11 8.60218 11 9V10C11 10.3978 10.842 10.7794 10.5607 11.0607C10.4595 11.1618 10.3454 11.247 10.2222 11.3147C10.4187 11.8791 10.741 12.3978 11.1716 12.8284C11.6022 13.259 12.1209 13.5813 12.6853 13.7778C12.753 13.6546 12.8382 13.5405 12.9393 13.4393C13.2206 13.158 13.6022 13 14 13H15C15.3978 13 15.7794 13.158 16.0607 13.4393C16.342 13.7206 16.5 14.1022 16.5 14.5C16.5 14.8978 16.342 15.2794 16.0607 15.5607C15.7794 15.842 15.3978 16 15 16H14C12.4087 16 10.8826 15.3679 9.75736 14.2426C8.63214 13.1174 8 11.5913 8 10V9C8 8.60218 8.15803 8.22065 8.43934 7.93934Z" fill="black"/>
</g>
<defs>
<clipPath id="clip0_608_406">
<rect width="24" height="24" fill="white"/>
</clipPath>
</defs>
</svg>
