<svg width="153" height="55" viewBox="0 0 153 55" fill="none" xmlns="http://www.w3.org/2000/svg">
<mask id="mask0_781_247" style="mask-type:luminance" maskUnits="userSpaceOnUse" x="97" y="0" width="56" height="56">
<path d="M97.7488 0H152.829V55.0003H97.7488V0Z" fill="white"/>
</mask>
<g mask="url(#mask0_781_247)">
<mask id="mask1_781_247" style="mask-type:luminance" maskUnits="userSpaceOnUse" x="97" y="0" width="56" height="55">
<path d="M111.843 34.4732L114.11 32.2098C115.374 30.9475 117.424 30.9475 118.688 32.2098L122.671 36.1877C123.935 37.45 123.935 39.4965 122.671 40.7588C121.407 42.0211 121.407 44.0685 122.671 45.3308L122.986 45.6445C124.249 46.9068 126.3 46.9068 127.564 45.6445L127.879 45.3308C129.142 44.0685 129.142 42.0211 127.879 40.7588L127.813 40.6937C126.549 39.4315 126.549 37.3841 127.813 36.1218L131.731 32.2098C132.995 30.9475 135.046 30.9475 136.31 32.2098L138.577 34.4732C139.841 35.7355 139.841 37.7829 138.577 39.0452L127.499 50.1063C126.235 51.3686 124.186 51.3686 122.922 50.1063L111.843 39.0435C110.579 37.7812 110.579 35.7338 111.843 34.4716M109.336 22.8715L112.212 25.7431C113.476 27.0054 113.476 29.0528 112.212 30.3151L109.945 32.5769C108.681 33.8392 106.631 33.8392 105.367 32.5769L102.493 29.706C101.229 28.4438 101.229 26.3972 102.493 25.1349L104.759 22.8715C106.023 21.6092 108.073 21.6092 109.337 22.8715M122.922 32.6461L120.587 30.3151C119.323 29.0528 119.323 27.0054 120.587 25.7431L122.922 23.4129C124.186 22.1506 126.235 22.1506 127.499 23.4129L129.832 25.7431C131.096 27.0054 131.096 29.0528 129.832 30.3151L127.498 32.6461C126.234 33.9084 124.184 33.9084 122.92 32.6461M139.183 20.976L136.306 23.8484C135.042 25.1107 132.992 25.1107 131.729 23.8484L127.787 19.9122C126.523 18.6508 126.523 16.6034 127.787 15.3411L127.875 15.2527C129.14 13.9904 129.14 11.943 127.875 10.6816L127.56 10.367C126.296 9.10473 124.247 9.10473 122.983 10.367L122.668 10.6816C121.404 11.943 121.404 13.9904 122.668 15.2527L122.69 15.2752C123.954 16.5375 123.954 18.5849 122.69 19.8471L118.685 23.8468C117.421 25.1091 115.37 25.1091 114.106 23.8468L111.234 20.976C109.97 19.7137 109.97 17.6671 111.234 16.4048L122.92 4.73468C124.184 3.47322 126.234 3.47322 127.498 4.73468L139.185 16.4048C140.449 17.6671 140.449 19.7137 139.185 20.976M147.926 29.7044L145.049 32.5769C143.785 33.8392 141.735 33.8392 140.471 32.5769L138.206 30.3151C136.942 29.0528 136.942 27.0054 138.206 25.7431L141.082 22.8715C142.346 21.6092 144.397 21.6092 145.661 22.8715L147.927 25.1349C149.192 26.3972 149.192 28.4438 147.927 29.706M122.92 0.946964L98.6971 25.1349C97.433 26.3972 97.433 28.4438 98.6971 29.706L122.92 53.894C124.184 55.1563 126.234 55.1563 127.498 53.894L151.721 29.706C152.985 28.4438 152.985 26.3972 151.721 25.1349L127.498 0.946964C126.234 -0.315329 124.184 -0.315329 122.92 0.946964Z" fill="white"/>
</mask>
<g mask="url(#mask1_781_247)">
<path d="M97.7488 0H152.669V54.8409H97.7488V0Z" fill="#32D875"/>
</g>
</g>
<path d="M10.407 38.2041H10.0996C10.0194 37.4015 9.7662 36.7958 9.34093 36.3887C8.91733 35.9798 8.43357 35.7746 7.89049 35.7746H6.56372V44.9786C6.56372 45.3974 6.62053 45.7144 6.73416 45.9297C6.84779 46.1433 7.02241 46.2901 7.25885 46.3702C7.49697 46.4486 7.83201 46.4928 8.2648 46.5037V46.8107H2.14223V46.5037C2.57419 46.5037 2.90588 46.4728 3.13815 46.4102C3.36959 46.3485 3.54421 46.21 3.66285 45.9964C3.78316 45.7812 3.84332 45.4525 3.84332 45.012V35.7746H2.38286C1.87236 35.7746 1.41868 35.9982 1.02266 36.4454C0.625792 36.8926 0.387674 37.4791 0.307465 38.2041H0V35.1472H10.407V38.2041Z" fill="#1D2E56"/>
<path d="M21.7443 38.4744H21.4369C21.2781 37.5917 20.9606 36.9209 20.4844 36.4621C20.0098 36.004 19.3865 35.7746 18.6162 35.7746H16.3202V40.5468H16.6778C17.1073 40.5468 17.4615 40.4792 17.7406 40.3432C18.0188 40.2081 18.2536 39.9453 18.4458 39.5556C18.6396 39.1644 18.7808 38.6062 18.8702 37.8804H19.1777V43.8072H18.8702C18.7449 42.7777 18.5042 42.0811 18.1483 41.7181C17.7916 41.3561 17.3237 41.1742 16.7447 41.1742H16.3202V44.9252C16.3202 45.4124 16.3938 45.7445 16.5408 45.9197C16.6879 46.0957 16.9719 46.1833 17.393 46.1833H18.6162C19.6138 46.1833 20.3958 45.9155 20.9623 45.379C21.5279 44.8409 21.9591 44.1193 22.2557 43.2132H22.5598L22.0317 46.8107H11.9021V46.5037H12.2931C12.6891 46.5037 12.9799 46.4453 13.1654 46.3268C13.3525 46.2092 13.4712 46.0548 13.523 45.8629C13.5739 45.6694 13.5998 45.4082 13.5998 45.0787V36.8458C13.5998 36.2919 13.4712 35.9248 13.2155 35.7446C12.9615 35.5627 12.5237 35.4659 11.9021 35.4542V35.1472H21.7443V38.4744Z" fill="#1D2E56"/>
<path d="M34.5123 38.2041H34.2048C34.1246 37.4015 33.8714 36.7958 33.4462 36.3887C33.0226 35.9798 32.5388 35.7746 31.9957 35.7746H30.6689V44.9786C30.6689 45.3974 30.7258 45.7144 30.8394 45.9297C30.953 46.1433 31.1276 46.2901 31.3641 46.3702C31.6022 46.4486 31.9372 46.4928 32.37 46.5037V46.8107H26.2475V46.5037C26.6794 46.5037 27.0111 46.4728 27.2434 46.4102C27.4748 46.3485 27.6494 46.21 27.7681 45.9964C27.8884 45.7812 27.9485 45.4525 27.9485 45.012V35.7746H26.4881C25.9776 35.7746 25.5239 35.9982 25.1279 36.4454C24.731 36.8926 24.4929 37.4791 24.4127 38.2041H24.1052V35.1472H34.5123V38.2041Z" fill="#1D2E56"/>
<path d="M42.0591 34.8937C43.2021 34.8937 44.2548 35.1373 45.2173 35.6245C46.1815 36.1101 46.9468 36.8176 47.5133 37.747C48.0814 38.6747 48.3655 39.766 48.3655 41.0208C48.3655 42.1421 48.1098 43.1616 47.6002 44.0776C47.0897 44.9945 46.3586 45.7187 45.4078 46.2501C44.4562 46.7824 43.3458 47.0477 42.0758 47.0477C40.8501 47.0477 39.7615 46.7908 38.8107 46.2768C37.859 45.7612 37.1171 45.0446 36.5849 44.1277C36.0518 43.2116 35.7861 42.1587 35.7861 40.9707C35.7861 39.8052 36.0543 38.7615 36.5916 37.8404C37.1305 36.9177 37.8757 36.1952 38.8274 35.6746C39.7782 35.154 40.856 34.8937 42.0591 34.8937ZM38.8107 40.9373C38.8107 41.8434 38.9209 42.7152 39.1415 43.5537C39.3621 44.3905 39.713 45.0838 40.1942 45.6328C40.6772 46.1801 41.2988 46.4537 42.0591 46.4537C42.7158 46.4537 43.2906 46.236 43.7836 45.7996C44.2757 45.3641 44.6575 44.7417 44.9299 43.9341C45.2014 43.1249 45.3376 42.1771 45.3376 41.0908C45.3376 39.9145 45.2039 38.9041 44.9366 38.0607C44.6709 37.218 44.2924 36.5781 43.8003 36.1418C43.3073 35.7063 42.7325 35.4877 42.0758 35.4877C41.4742 35.4877 40.927 35.6896 40.4349 36.0917C39.9419 36.4922 39.5476 37.1029 39.2518 37.9238C38.9577 38.7448 38.8107 39.7493 38.8107 40.9373Z" fill="#1D2E56"/>
<path d="M55.8112 35.4542C55.3116 35.4542 54.949 35.551 54.7217 35.7446C54.4945 35.9365 54.3808 36.2919 54.3808 36.8125V43.7371C54.3808 44.4513 54.6064 45.0545 55.0593 45.5459C55.5138 46.0381 56.2173 46.2834 57.1714 46.2834C58.281 46.2834 59.1181 45.948 59.6846 45.2756C60.2528 44.6015 60.5368 43.7605 60.5368 42.7527V36.9293C60.5368 36.4087 60.4232 36.0332 60.1959 35.8013C59.9704 35.5702 59.5977 35.4542 59.0764 35.4542V35.1472H62.6624V35.4542C62.141 35.4659 61.7608 35.5811 61.5227 35.8013C61.2838 36.0216 61.1651 36.4379 61.1651 37.0494V42.6859C61.1651 44.1009 60.7574 45.1822 59.942 45.9297C59.1265 46.6755 57.9535 47.0476 56.4228 47.0476C55.3467 47.0476 54.4544 46.8749 53.7459 46.5304C53.0374 46.1858 52.5127 45.7253 52.1718 45.1488C51.8326 44.5706 51.6638 43.919 51.6638 43.1932V36.7424C51.6638 36.2335 51.5385 35.8939 51.2895 35.7246C51.0397 35.556 50.6194 35.4659 50.0295 35.4542V35.1472H55.8112V35.4542Z" fill="#1D2E56"/>
<path d="M69.8854 35.4542C69.4552 35.4659 69.1318 35.5001 68.9163 35.5577C68.6999 35.6136 68.5353 35.7437 68.4216 35.9481C68.3097 36.1509 68.2545 36.4779 68.2545 36.9293V45.0453C68.2545 45.4858 68.308 45.8087 68.415 46.0131C68.5219 46.2158 68.6832 46.346 68.8996 46.4036C69.1151 46.4595 69.4443 46.4928 69.8854 46.5037V46.8107H63.8999V46.5037C64.3319 46.5037 64.6552 46.4761 64.8691 46.4203C65.0846 46.3652 65.2501 46.2325 65.3637 46.0231C65.4773 45.812 65.5341 45.4858 65.5341 45.0453V36.9293C65.5341 36.4888 65.4773 36.1642 65.3637 35.9548C65.2501 35.7462 65.083 35.6136 64.8624 35.5577C64.6418 35.5001 64.321 35.4659 63.8999 35.4542V35.1472H69.8854V35.4542Z" fill="#1D2E56"/>
<path d="M81.4288 38.3743C81.4288 39.0868 81.199 39.7008 80.7403 40.2164C80.2808 40.7303 79.6609 41.0841 78.8788 41.2776L81.1748 45.0286C81.4689 45.5159 81.743 45.8813 81.9969 46.1232C82.2526 46.366 82.5116 46.4928 82.7723 46.5037V46.8107H79.32L76.0749 41.4979H75.5469V45.0453C75.5469 45.4858 75.6053 45.8087 75.724 46.0131C75.8443 46.2158 76.0164 46.346 76.242 46.4036C76.4693 46.4595 76.8101 46.4928 77.2647 46.5037V46.8107H71.1956V46.5037C71.625 46.4928 71.9509 46.4561 72.1714 46.3936C72.392 46.3318 72.5558 46.1958 72.6627 45.9864C72.7713 45.7778 72.8265 45.4641 72.8265 45.0453V36.7591C72.8265 36.2518 72.6978 35.9081 72.4421 35.7279C72.1881 35.546 71.7721 35.4542 71.1956 35.4542V35.1472H77.1945C78.4527 35.1472 79.4737 35.4309 80.2558 35.9982C81.0378 36.5639 81.4288 37.3556 81.4288 38.3743ZM76.4659 40.8705C77.0315 40.8705 77.5404 40.6928 77.9932 40.3365C78.4477 39.9786 78.675 39.307 78.675 38.3209C78.675 36.6239 77.8528 35.7746 76.2086 35.7746H75.5469V40.8705H76.4659Z" fill="#1D2E56"/>
<path d="M8.67735 21.5573C8.9397 21.5573 9.07171 21.9043 9.07171 22.5985C9.07171 23.3059 8.9397 23.6597 8.67735 23.6597H6.51172V23.6997C6.51172 25.0747 6.13742 26.1476 5.38881 26.9201C4.64187 27.6943 3.61253 28.0948 2.30079 28.1215L1.94653 25.9991C2.75948 26.0499 3.34684 25.8956 3.70777 25.5352C4.06871 25.1748 4.24918 24.5624 4.24918 23.6997V14.1086H6.51172V21.5573H8.67735Z" fill="#1D2E56"/>
<path d="M12.0821 21.5573C12.3428 21.5573 12.4731 21.9043 12.4731 22.5985C12.4731 23.3059 12.3428 23.6597 12.0821 23.6597H8.67658C8.41424 23.6597 8.28223 23.3059 8.28223 22.5985C8.28223 21.9043 8.41424 21.5573 8.67658 21.5573H12.0821Z" fill="#1D2E56"/>
<path d="M15.4861 21.5573C15.7468 21.5573 15.8772 21.9043 15.8772 22.5985C15.8772 23.3059 15.7468 23.6597 15.4861 23.6597H12.0806C11.8183 23.6597 11.6863 23.3059 11.6863 22.5985C11.6863 21.9043 11.8183 21.5573 12.0806 21.5573H15.4861Z" fill="#1D2E56"/>
<path d="M18.8902 21.5573C19.1509 21.5573 19.2812 21.9043 19.2812 22.5985C19.2812 23.3059 19.1509 23.6597 18.8902 23.6597H15.4847C15.2223 23.6597 15.0903 23.3059 15.0903 22.5985C15.0903 21.9043 15.2223 21.5573 15.4847 21.5573H18.8902Z" fill="#1D2E56"/>
<path d="M22.294 21.5573C22.5547 21.5573 22.685 21.9043 22.685 22.5985C22.685 23.3059 22.5547 23.6597 22.294 23.6597H18.8885C18.6262 23.6597 18.4941 23.3059 18.4941 22.5985C18.4941 21.9043 18.6262 21.5573 18.8885 21.5573H22.294Z" fill="#1D2E56"/>
<path d="M25.6981 21.5573C25.9587 21.5573 26.0891 21.9043 26.0891 22.5985C26.0891 23.3059 25.9587 23.6597 25.6981 23.6597H22.2926C22.0302 23.6597 21.8982 23.3059 21.8982 22.5985C21.8982 21.9043 22.0302 21.5573 22.2926 21.5573H25.6981Z" fill="#1D2E56"/>
<path d="M29.1021 21.5573C29.3628 21.5573 29.4931 21.9043 29.4931 22.5985C29.4931 23.3059 29.3628 23.6597 29.1021 23.6597H25.6966C25.4343 23.6597 25.3022 23.3059 25.3022 22.5985C25.3022 21.9043 25.4343 21.5573 25.6966 21.5573H29.1021Z" fill="#1D2E56"/>
<path d="M31.1858 14.1086H33.4484V23.6597H29.1004C28.8381 23.6597 28.7061 23.3059 28.7061 22.5985C28.7061 21.9043 28.8381 21.5573 29.1004 21.5573H31.1858V14.1086ZM30.7748 27.6476C30.4339 27.6476 30.1481 27.5292 29.9192 27.2939C29.6894 27.0578 29.575 26.7633 29.575 26.4095C29.575 26.0575 29.6894 25.7638 29.9192 25.5285C30.1481 25.2924 30.4339 25.1748 30.7748 25.1748C31.1156 25.1748 31.4006 25.2891 31.6303 25.5185C31.8592 25.7471 31.9745 26.0441 31.9745 26.4095C31.9745 26.7633 31.8592 27.0578 31.6303 27.2939C31.4006 27.5292 31.1156 27.6476 30.7748 27.6476ZM33.8828 27.6476C33.5419 27.6476 33.2562 27.5292 33.0273 27.2939C32.7975 27.0578 32.6831 26.7633 32.6831 26.4095C32.6831 26.0575 32.7975 25.7638 33.0273 25.5285C33.2562 25.2924 33.5419 25.1748 33.8828 25.1748C34.2237 25.1748 34.5086 25.2891 34.7384 25.5185C34.9673 25.7471 35.0826 26.0441 35.0826 26.4095C35.0826 26.7633 34.9673 27.0578 34.7384 27.2939C34.5086 27.5292 34.2237 27.6476 33.8828 27.6476Z" fill="#1D2E56"/>
<path d="M47.7933 21.5573C48.0556 21.5573 48.1876 21.9044 48.1876 22.5985C48.1876 23.306 48.0556 23.6597 47.7933 23.6597H45.5107V23.6998C45.5107 25.1014 45.1297 26.1877 44.3677 26.9602C43.6074 27.7345 42.5647 28.1216 41.2396 28.1216H37.403V26.0191H41.2229C41.9314 26.0191 42.4461 25.8356 42.7669 25.4685C43.0877 25.1014 43.2481 24.5116 43.2481 23.6998V23.6597H40.7483C39.739 23.6597 38.8434 23.4345 38.0613 22.9823C37.281 22.5309 36.6786 21.9261 36.2533 21.1669C35.8272 20.406 35.615 19.5675 35.615 18.6506C35.615 17.7212 35.8372 16.8669 36.2834 16.0877C36.7287 15.3068 37.3612 14.6877 38.1817 14.2288C39.0013 13.7708 39.9563 13.5414 41.0458 13.5414C41.7651 13.5414 42.5279 13.6398 43.335 13.8351C44.1438 14.0311 44.869 14.2989 45.5107 14.6393V21.5573H47.7933ZM43.2481 21.5573V16.0176C42.4995 15.769 41.771 15.6438 41.0625 15.6438C40.0799 15.6438 39.3029 15.9191 38.7331 16.4681C38.1624 17.0179 37.8775 17.7454 37.8775 18.6506C37.8775 19.5141 38.1424 20.2149 38.6729 20.7531C39.2051 21.2895 39.8969 21.5573 40.7483 21.5573H43.2481Z" fill="#1D2E56"/>
<path d="M51.1983 21.5573C51.459 21.5573 51.5893 21.9043 51.5893 22.5985C51.5893 23.3059 51.459 23.6597 51.1983 23.6597H47.7928C47.5304 23.6597 47.3984 23.3059 47.3984 22.5985C47.3984 21.9043 47.5304 21.5573 47.7928 21.5573H51.1983Z" fill="#1D2E56"/>
<path d="M54.6024 21.5573C54.863 21.5573 54.9934 21.9043 54.9934 22.5985C54.9934 23.3059 54.863 23.6597 54.6024 23.6597H51.1968C50.9345 23.6597 50.8025 23.3059 50.8025 22.5985C50.8025 21.9043 50.9345 21.5573 51.1968 21.5573H54.6024Z" fill="#1D2E56"/>
<path d="M74.1414 21.5572C74.4038 21.5572 74.5358 21.9043 74.5358 22.5984C74.5358 23.3059 74.4038 23.6597 74.1414 23.6597H54.6007C54.3383 23.6597 54.2063 23.3059 54.2063 22.5984C54.2063 21.9043 54.3383 21.5572 54.6007 21.5572H56.8632V9.09949H59.1257V17.9597C59.678 16.6766 60.4559 15.6454 61.4585 14.8662C62.4611 14.0878 63.7361 13.6981 65.2851 13.6981C66.5834 13.6981 67.6788 13.9801 68.5703 14.5424C69.4634 15.1056 70.126 15.8723 70.5588 16.8418C70.9907 17.8121 71.2071 18.8925 71.2071 20.0822V21.5572H74.1414ZM68.9446 21.5572V20.0822C68.9446 18.7073 68.6221 17.651 67.9787 16.9119C67.3371 16.171 66.459 15.8006 65.3452 15.8006C64.4003 15.8006 63.508 16.0567 62.6683 16.5681C61.8278 17.0779 61.1126 17.7754 60.5227 18.6605C59.932 19.5441 59.5251 20.5093 59.3029 21.5572H68.9446Z" fill="#1D2E56"/>
<path d="M76.2244 14.1086H78.4869V23.6597H74.139C73.8766 23.6597 73.7446 23.3059 73.7446 22.5985C73.7446 21.9043 73.8766 21.5573 74.139 21.5573H76.2244V14.1086ZM75.8133 12.7337C75.4724 12.7337 75.1867 12.6161 74.9578 12.38C74.728 12.1447 74.6136 11.8494 74.6136 11.4956C74.6136 11.1444 74.728 10.8507 74.9578 10.6146C75.1867 10.3793 75.4724 10.2609 75.8133 10.2609C76.1542 10.2609 76.4391 10.376 76.6689 10.6046C76.8978 10.834 77.0131 11.131 77.0131 11.4956C77.0131 11.8494 76.8978 12.1447 76.6689 12.38C76.4391 12.6161 76.1542 12.7337 75.8133 12.7337ZM78.9214 12.7337C78.5805 12.7337 78.2948 12.6161 78.0659 12.38C77.8361 12.1447 77.7216 11.8494 77.7216 11.4956C77.7216 11.1444 77.8361 10.8507 78.0659 10.6146C78.2948 10.3793 78.5805 10.2609 78.9214 10.2609C79.2623 10.2609 79.5472 10.376 79.777 10.6046C80.0059 10.834 80.1212 11.131 80.1212 11.4956C80.1212 11.8494 80.0059 12.1447 79.777 12.38C79.5472 12.6161 79.2623 12.7337 78.9214 12.7337Z" fill="#1D2E56"/>
</svg>
